<svg id="Group_49" data-name="Group 49" xmlns="http://www.w3.org/2000/svg" width="23.912" height="30.445" viewBox="0 0 23.912 30.445">
  <path id="Path_5" data-name="Path 5" d="M338.315,342.323c1.207,0,2.416-.035,3.622.006a8.364,8.364,0,0,1,8.067,8,46.123,46.123,0,0,1-.036,5.266,2.041,2.041,0,0,1-1.094,1.468,32.868,32.868,0,0,1-21.63-.048,2.053,2.053,0,0,1-1.008-1.515,47.476,47.476,0,0,1-.043-4.937,8.363,8.363,0,0,1,8.171-8.236C335.679,342.291,337,342.323,338.315,342.323Z" transform="translate(-326.149 -328.427)" fill="#30323d"/>
  <path id="Path_10" data-name="Path 10" d="M340.665,334.8a6.421,6.421,0,1,1,6.435-6.326A6.441,6.441,0,0,1,340.665,334.8Z" transform="translate(-328.729 -321.959)" fill="#30323d"/>
</svg>
