<svg id="Group_4" data-name="Group 4" xmlns="http://www.w3.org/2000/svg" width="34.927" height="35.501" viewBox="0 0 34.927 35.501">
  <path id="Path_14" data-name="Path 14" d="M380.8,111.623h-.951c-4.8,0-9.6-.012-14.4.014a1.88,1.88,0,0,1-1.552-.664c-.573-.64-1.2-1.231-1.818-1.832-1.691-1.649-3.415-1.65-5.134-.012-.119.113-.243.223-.527.482l-3.4-3.36a14.79,14.79,0,0,1,1.768-1.083c1.366-.581,2.776-1.062,4.147-1.633a1.915,1.915,0,0,0,.807-2.562,1.411,1.411,0,0,1-.1-.17c-.949-2.288-1.95-4.557-2.814-6.877-.268-.72-.462-1.634.525-2.195.134-.076.118-.538.067-.8-1.037-5.448,4.515-10.675,9.821-9.218a5.122,5.122,0,0,1,1.62.718,17.616,17.616,0,0,1,3.182,2.582,5.777,5.777,0,0,1,1.088,2.784,13.533,13.533,0,0,1-.1,3.059,2.862,2.862,0,0,0,.211,1.864c.594,1.041-.555,4.1-1.589,4.785a1.516,1.516,0,0,0-.433.69c-.339.821-.583,1.688-.989,2.472a2.086,2.086,0,0,0,1.067,3.113c1.951.716,3.914,1.416,5.907,2C380.066,106.626,381.309,108.519,380.8,111.623Z" transform="translate(-345.984 -81.466)" fill="#30323d"/>
  <path id="Path_15" data-name="Path 15" d="M335.906,129.841c-.014-1.393,1.743-3.82,2.885-4.007a1.878,1.878,0,0,1,1.318.438,26.646,26.646,0,0,1,2.188,2.154,1.352,1.352,0,0,1,.016,2.166c-.108.125-.227.24-.342.358-1.307,1.336-1.318,1.344-.175,2.881a13.96,13.96,0,0,0,4.283,3.918.875.875,0,0,0,1.283-.159c2.242-2.5,2.47-1.717,4.254.062,2.119,2.114,2.084,2.085.082,4.213a3.485,3.485,0,0,1-3.947.991,17.991,17.991,0,0,1-8.708-6.271,14.84,14.84,0,0,1-3.01-5.959C335.962,130.306,335.927,129.977,335.906,129.841Z" transform="translate(-335.906 -107.59)" fill="#30323d"/>
</svg>
