<svg id="Group_1" data-name="Group 1" xmlns="http://www.w3.org/2000/svg" width="32.994" height="33.969" viewBox="0 0 32.994 33.969">
  <path id="Path_2" data-name="Path 2" d="M292.82,231.727a14.2,14.2,0,0,1-2.447-.909,49.849,49.849,0,0,1-17.7-17.778,4.383,4.383,0,0,1,.513-5.288,34.032,34.032,0,0,1,2.527-2.541,3.3,3.3,0,0,1,4.651.016,10.117,10.117,0,0,1,2.17,2.567c.739,1.47.221,2.841-.958,3.977-1.082,1.042-1.059,1.058-.09,2.217a67.239,67.239,0,0,0,8.386,8.364c.675.567,1.116.607,1.761-.052,2.062-2.105,3.769-2.041,5.913.051,1.117,1.09,2.053,2.21,1.706,3.915-.006.03-.006.061-.012.091C298.815,228.423,294.988,231.549,292.82,231.727Z" transform="translate(-272.014 -197.758)" fill="#30323d"/>
  <path id="Path_3" data-name="Path 3" d="M320.768,205a8.951,8.951,0,1,1,9.023-8.805A8.763,8.763,0,0,1,320.768,205Zm7.539-8.876a7.364,7.364,0,0,0-7.456-7.511,7.5,7.5,0,0,0-7.532,7.5,7.66,7.66,0,0,0,7.519,7.487A7.509,7.509,0,0,0,328.306,196.129Z" transform="translate(-296.797 -187.102)" fill="#30323d"/>
  <path id="Path_4" data-name="Path 4" d="M337.7,204.359H332v-6.05h1.42v4.555H337.7Z" transform="translate(-309.276 -194.063)" fill="#30323d"/>
</svg>
