<svg xmlns="http://www.w3.org/2000/svg" width="32.501" height="25.274" viewBox="0 0 32.501 25.274">
  <path id="Home_Icon" data-name="Home Icon" d="M15.819,8.81l-10.4,8.568v9.247a.9.9,0,0,0,.9.9l6.323-.016a.9.9,0,0,0,.9-.9v-5.4a.9.9,0,0,1,.9-.9h3.611a.9.9,0,0,1,.9.9v5.4a.9.9,0,0,0,.9.906l6.32.017a.9.9,0,0,0,.9-.9V17.372L16.682,8.81A.688.688,0,0,0,15.819,8.81ZM32.25,14.633l-4.717-3.888V2.931a.677.677,0,0,0-.677-.677H23.7a.677.677,0,0,0-.677.677v4.1L17.968,2.871a2.708,2.708,0,0,0-3.442,0L.245,14.633a.677.677,0,0,0-.09.954l1.439,1.749a.677.677,0,0,0,.954.092L15.819,6.5a.688.688,0,0,1,.863,0L29.954,17.428a.677.677,0,0,0,.954-.09l1.439-1.749a.677.677,0,0,0-.1-.955Z" transform="translate(0.001 -2.254)" fill="#0d4d8d"/>
</svg>
