<svg id="Icon_ionic-ios-options" data-name="Icon ionic-ios-options" xmlns="http://www.w3.org/2000/svg" width="32.691" height="29.198" viewBox="0 0 32.691 29.198">
  <path id="Path_9" data-name="Path 9" d="M23.123,26.244a3.265,3.265,0,0,1,2.884-1.494,3.265,3.265,0,0,1,2.884,1.494h5.917a1.153,1.153,0,0,1,1.257,1h0a1.153,1.153,0,0,1-1.257,1H28.891a3.265,3.265,0,0,1-2.884,1.494,3.265,3.265,0,0,1-2.884-1.494H4.632a1.153,1.153,0,0,1-1.257-1h0a1.153,1.153,0,0,1,1.257-1Z" transform="translate(-3.375 -0.531)" fill="#30323d"/>
  <path id="Path_10" data-name="Path 10" d="M10.55,16.681a3.265,3.265,0,0,1,2.884-1.494,3.265,3.265,0,0,1,2.884,1.494H34.809a1.153,1.153,0,0,1,1.257,1h0a1.153,1.153,0,0,1-1.257,1H16.318a3.265,3.265,0,0,1-2.884,1.494,3.265,3.265,0,0,1-2.884-1.494H4.632a1.153,1.153,0,0,1-1.257-1h0a1.153,1.153,0,0,1,1.257-1Z" transform="translate(-3.375 -3.078)" fill="#30323d"/>
  <path id="Path_11" data-name="Path 11" d="M23.123,7.119a3.265,3.265,0,0,1,2.884-1.494,3.265,3.265,0,0,1,2.884,1.494h5.917a1.153,1.153,0,0,1,1.257,1h0a1.153,1.153,0,0,1-1.257,1H28.891A3.265,3.265,0,0,1,26.007,10.6,3.265,3.265,0,0,1,23.123,9.11H4.632a1.153,1.153,0,0,1-1.257-1h0a1.153,1.153,0,0,1,1.257-1Z" transform="translate(-3.375 -5.625)" fill="#30323d"/>
</svg>
