<svg xmlns="http://www.w3.org/2000/svg" width="27.043" height="27.05" viewBox="0 0 27.043 27.05">
  <path id="Icon_ionic-ios-settings" data-name="Icon ionic-ios-settings" d="M29.311,18.022a3.48,3.48,0,0,1,2.232-3.247,13.794,13.794,0,0,0-1.669-4.021,3.527,3.527,0,0,1-1.416.3,3.472,3.472,0,0,1-3.176-4.887A13.752,13.752,0,0,0,21.268,4.5a3.477,3.477,0,0,1-6.493,0,13.794,13.794,0,0,0-4.021,1.669,3.472,3.472,0,0,1-3.176,4.887,3.412,3.412,0,0,1-1.416-.3A14.1,14.1,0,0,0,4.5,14.782a3.479,3.479,0,0,1,.007,6.493A13.794,13.794,0,0,0,6.176,25.3a3.474,3.474,0,0,1,4.585,4.585,13.874,13.874,0,0,0,4.021,1.669,3.471,3.471,0,0,1,6.479,0,13.794,13.794,0,0,0,4.021-1.669A3.477,3.477,0,0,1,29.867,25.3a13.874,13.874,0,0,0,1.669-4.021A3.5,3.5,0,0,1,29.311,18.022ZM18.085,23.649a5.634,5.634,0,1,1,5.634-5.634A5.632,5.632,0,0,1,18.085,23.649Z" transform="translate(-4.5 -4.5)" fill="#30323d"/>
</svg>
