<svg xmlns="http://www.w3.org/2000/svg" width="25.538" height="23.392" viewBox="0 0 25.538 23.392">
  <path id="Path_1" data-name="Path 1" d="M201.692,235.761h-22a1.771,1.771,0,0,0-1.771,1.771v12.984a1.771,1.771,0,0,0,1.771,1.771h3v6.867l6.921-6.867h12.071a1.771,1.771,0,0,0,1.771-1.771V237.532A1.771,1.771,0,0,0,201.692,235.761Zm-19.172,8.262a1.717,1.717,0,1,1,1.717,1.717A1.717,1.717,0,0,1,182.52,244.023Zm8.174,1.717a1.717,1.717,0,1,1,1.717-1.717A1.718,1.718,0,0,1,190.694,245.741Zm6.456,0a1.717,1.717,0,1,1,1.717-1.717A1.717,1.717,0,0,1,197.15,245.741Z" transform="translate(-177.924 -235.761)" fill="#30323d"/>
</svg>
